<mxfile host="65bd71144e">
    <diagram id="_vay8Y5pAFVPlpuN3CmY" name="Page-1">
        <mxGraphModel dx="2379" dy="1093" grid="0" gridSize="20" guides="1" tooltips="1" connect="1" arrows="1" fold="1" page="1" pageScale="1" pageWidth="1169" pageHeight="1654" background="#18141D" math="0" shadow="0">
            <root>
                <mxCell id="0"/>
                <mxCell id="1" parent="0"/>
                <mxCell id="61" style="edgeStyle=none;html=1;exitX=1;exitY=0.5;exitDx=0;exitDy=0;entryX=0.5;entryY=0;entryDx=0;entryDy=0;fontColor=#FFFFFF;strokeColor=#FFFFFF;fontSize=16;spacingTop=4;spacingBottom=4;spacingLeft=8;spacingRight=8;" parent="1" source="2" target="39" edge="1">
                    <mxGeometry relative="1" as="geometry">
                        <Array as="points">
                            <mxPoint x="808" y="56"/>
                        </Array>
                    </mxGeometry>
                </mxCell>
                <mxCell id="80" style="edgeStyle=none;html=1;entryX=0.5;entryY=0;entryDx=0;entryDy=0;fontColor=#FFFFFF;strokeColor=#FFFFFF;fontSize=16;spacingTop=4;spacingBottom=4;spacingLeft=8;spacingRight=8;" parent="1" source="2" target="3" edge="1">
                    <mxGeometry relative="1" as="geometry">
                        <Array as="points">
                            <mxPoint x="370" y="56"/>
                        </Array>
                    </mxGeometry>
                </mxCell>
                <mxCell id="2" value="UI" style="rounded=0;whiteSpace=wrap;html=1;fillColor=#18141D;strokeColor=#FFFFFF;fontColor=#FFFFFF;fontSize=16;spacingTop=16;spacingBottom=16;spacingLeft=6;spacingRight=6;" parent="1" vertex="1">
                    <mxGeometry x="565" y="27" width="41" height="58" as="geometry"/>
                </mxCell>
                <mxCell id="78" style="edgeStyle=none;html=1;entryX=0.5;entryY=0;entryDx=0;entryDy=0;fontColor=#FFFFFF;strokeColor=#FFFFFF;fontSize=16;spacingTop=4;spacingBottom=4;spacingLeft=8;spacingRight=8;" parent="1" source="3" target="67" edge="1">
                    <mxGeometry relative="1" as="geometry">
                        <Array as="points">
                            <mxPoint x="370" y="644"/>
                            <mxPoint x="152" y="644"/>
                        </Array>
                    </mxGeometry>
                </mxCell>
                <mxCell id="98" style="edgeStyle=none;html=1;entryX=0.5;entryY=0;entryDx=0;entryDy=0;endArrow=classic;endFill=1;fontColor=#FFFFFF;strokeColor=#FFFFFF;fontSize=16;spacingTop=4;spacingBottom=4;spacingLeft=8;spacingRight=8;" parent="1" source="3" target="73" edge="1">
                    <mxGeometry relative="1" as="geometry"/>
                </mxCell>
                <mxCell id="3" value="TodoController" style="rounded=0;whiteSpace=wrap;html=1;fillColor=#18141D;strokeColor=#FFFFFF;fontColor=#FFFFFF;fontSize=16;spacingTop=16;spacingBottom=16;spacingLeft=6;spacingRight=6;" parent="1" vertex="1">
                    <mxGeometry x="308" y="282" width="124" height="58" as="geometry"/>
                </mxCell>
                <mxCell id="66" style="edgeStyle=none;html=1;entryX=0;entryY=0.5;entryDx=0;entryDy=0;strokeColor=#FFFFFF;fontSize=16;spacingTop=4;spacingBottom=4;spacingLeft=8;spacingRight=8;" parent="1" source="5" target="63" edge="1">
                    <mxGeometry relative="1" as="geometry"/>
                </mxCell>
                <mxCell id="5" value="ITodoOutputPort" style="rounded=1;whiteSpace=wrap;html=1;glass=0;shadow=0;dashed=1;fillColor=#18141D;strokeColor=#FFFFFF;fontColor=#FFFFFF;fontSize=16;spacingTop=16;spacingBottom=16;spacingLeft=6;spacingRight=6;" parent="1" vertex="1">
                    <mxGeometry x="741" y="690" width="135" height="58" as="geometry"/>
                </mxCell>
                <mxCell id="101" style="edgeStyle=none;html=1;entryX=0.5;entryY=1;entryDx=0;entryDy=0;endArrow=classic;endFill=1;strokeColor=#FFFFFF;fontSize=16;spacingTop=4;spacingBottom=4;spacingLeft=8;spacingRight=8;" parent="1" source="10" target="15" edge="1">
                    <mxGeometry relative="1" as="geometry"/>
                </mxCell>
                <mxCell id="10" value="ITodoRepository" style="rounded=1;whiteSpace=wrap;html=1;glass=0;shadow=0;dashed=1;fillColor=#18141D;strokeColor=#FFFFFF;fontColor=#FFFFFF;fontSize=16;spacingTop=16;spacingBottom=16;spacingLeft=6;spacingRight=6;" parent="1" vertex="1">
                    <mxGeometry x="521" y="576" width="134" height="58" as="geometry"/>
                </mxCell>
                <mxCell id="13" value="Todo" style="rounded=0;whiteSpace=wrap;html=1;glass=0;shadow=0;strokeColor=#FFFFFF;fillColor=#18141D;fontColor=#FFFFFF;fontSize=16;spacingTop=16;spacingBottom=16;spacingLeft=6;spacingRight=6;" parent="1" vertex="1">
                    <mxGeometry x="559" y="956" width="59" height="58" as="geometry"/>
                </mxCell>
                <mxCell id="15" value="IHttp" style="rounded=1;whiteSpace=wrap;html=1;glass=0;shadow=0;dashed=1;fillColor=#18141D;strokeColor=#FFFFFF;fontColor=#FFFFFF;fontSize=16;spacingTop=16;spacingBottom=16;spacingLeft=6;spacingRight=6;" parent="1" vertex="1">
                    <mxGeometry x="559" y="472" width="58" height="58" as="geometry"/>
                </mxCell>
                <mxCell id="62" style="edgeStyle=none;html=1;exitX=0.5;exitY=0;exitDx=0;exitDy=0;entryX=0.5;entryY=1;entryDx=0;entryDy=0;fontColor=#FFFFFF;strokeColor=#FFFFFF;fontSize=16;spacingTop=4;spacingBottom=4;spacingLeft=8;spacingRight=8;" parent="1" source="29" target="39" edge="1">
                    <mxGeometry relative="1" as="geometry"/>
                </mxCell>
                <mxCell id="64" style="edgeStyle=none;html=1;entryX=0.5;entryY=0;entryDx=0;entryDy=0;fontColor=#FFFFFF;strokeColor=#FFFFFF;fontSize=16;spacingTop=4;spacingBottom=4;spacingLeft=8;spacingRight=8;" parent="1" source="29" target="63" edge="1">
                    <mxGeometry relative="1" as="geometry">
                        <Array as="points">
                            <mxPoint x="808" y="629"/>
                            <mxPoint x="1018" y="628"/>
                        </Array>
                    </mxGeometry>
                </mxCell>
                <mxCell id="81" style="edgeStyle=none;html=1;entryX=0.5;entryY=0;entryDx=0;entryDy=0;fillColor=#1ba1e2;strokeColor=#006EAF;fontSize=16;spacingTop=4;spacingBottom=4;spacingLeft=8;spacingRight=8;" parent="1" source="29" target="5" edge="1">
                    <mxGeometry relative="1" as="geometry"/>
                </mxCell>
                <mxCell id="29" value="TodoPresenter" style="rounded=0;whiteSpace=wrap;html=1;fillColor=#18141D;strokeColor=#FFFFFF;fontColor=#FFFFFF;fontSize=16;spacingTop=16;spacingBottom=16;spacingLeft=6;spacingRight=6;" parent="1" vertex="1">
                    <mxGeometry x="746" y="282" width="124" height="58" as="geometry"/>
                </mxCell>
                <mxCell id="39" value="ICreateTodoViewModel" style="rounded=1;whiteSpace=wrap;html=1;glass=0;shadow=0;dashed=1;strokeColor=#FFFFFF;fillColor=#18141D;fontColor=#FFFFFF;fontSize=16;spacingRight=6;spacingLeft=6;spacing=0;spacingTop=16;spacingBottom=16;" parent="1" vertex="1">
                    <mxGeometry x="720" y="178" width="177" height="54" as="geometry"/>
                </mxCell>
                <mxCell id="47" value="" style="rounded=0;whiteSpace=wrap;html=1;strokeColor=#FFFFFF;fillColor=none;strokeWidth=2;fontSize=16;spacingTop=4;spacingBottom=4;spacingLeft=8;spacingRight=8;" parent="1" vertex="1">
                    <mxGeometry x="19" y="130" width="1125" height="5" as="geometry"/>
                </mxCell>
                <mxCell id="50" value="" style="rounded=0;whiteSpace=wrap;html=1;strokeColor=#FFFFFF;fillColor=none;strokeWidth=2;fontSize=16;spacingTop=4;spacingBottom=4;spacingLeft=8;spacingRight=8;" parent="1" vertex="1">
                    <mxGeometry x="19" y="427" width="1122" height="5" as="geometry"/>
                </mxCell>
                <mxCell id="55" value="" style="rounded=0;whiteSpace=wrap;html=1;strokeColor=#FFFFFF;fillColor=none;strokeWidth=2;fontSize=16;spacingTop=4;spacingBottom=4;spacingLeft=8;spacingRight=8;" parent="1" vertex="1">
                    <mxGeometry x="24" y="878" width="1126" height="5" as="geometry"/>
                </mxCell>
                <mxCell id="56" value="Entities" style="text;html=1;strokeColor=#A50040;fillColor=#d80073;align=center;verticalAlign=middle;whiteSpace=wrap;rounded=0;strokeWidth=2;fontColor=#ffffff;fontSize=16;spacingTop=4;spacingBottom=4;spacingLeft=8;spacingRight=8;" parent="1" vertex="1">
                    <mxGeometry x="44" y="892" width="180" height="30" as="geometry"/>
                </mxCell>
                <mxCell id="57" value="Use Cases" style="text;html=1;strokeColor=#A50040;fillColor=#d80073;align=center;verticalAlign=middle;whiteSpace=wrap;rounded=0;strokeWidth=2;fontColor=#ffffff;fontSize=16;spacingTop=4;spacingBottom=4;spacingLeft=8;spacingRight=8;" parent="1" vertex="1">
                    <mxGeometry x="39" y="441" width="180" height="30" as="geometry"/>
                </mxCell>
                <mxCell id="58" value="Interface Adapters" style="text;html=1;strokeColor=#A50040;fillColor=#d80073;align=center;verticalAlign=middle;whiteSpace=wrap;rounded=0;strokeWidth=2;fontColor=#ffffff;fontSize=16;spacingTop=4;spacingBottom=4;spacingLeft=8;spacingRight=8;" parent="1" vertex="1">
                    <mxGeometry x="39" y="141" width="180" height="30" as="geometry"/>
                </mxCell>
                <mxCell id="59" value="Framework and Drivers" style="text;html=1;strokeColor=#A50040;fillColor=#d80073;align=center;verticalAlign=middle;whiteSpace=wrap;rounded=0;strokeWidth=2;fontColor=#ffffff;fontSize=16;spacingTop=4;spacingBottom=4;spacingLeft=8;spacingRight=8;" parent="1" vertex="1">
                    <mxGeometry x="39" y="10" width="180" height="30" as="geometry"/>
                </mxCell>
                <mxCell id="63" value="ICreateTodoResponseModel" style="rounded=1;whiteSpace=wrap;html=1;glass=0;shadow=0;dashed=1;strokeColor=#FFFFFF;fillColor=#18141D;fontColor=#FFFFFF;fontSize=16;spacingTop=16;spacingBottom=16;spacingLeft=6;spacingRight=6;" parent="1" vertex="1">
                    <mxGeometry x="910" y="690" width="216" height="58" as="geometry"/>
                </mxCell>
                <mxCell id="67" value="ICreateTodoRequestModel" style="rounded=1;whiteSpace=wrap;html=1;glass=0;shadow=0;dashed=1;strokeColor=#FFFFFF;fillColor=#18141D;fontColor=#FFFFFF;fontSize=16;spacingTop=16;spacingBottom=16;spacingLeft=6;spacingRight=6;" parent="1" vertex="1">
                    <mxGeometry x="50" y="690" width="204" height="58" as="geometry"/>
                </mxCell>
                <mxCell id="72" style="edgeStyle=none;html=1;entryX=0;entryY=0.5;entryDx=0;entryDy=0;strokeColor=#FFFFFF;fontSize=16;spacingTop=4;spacingBottom=4;spacingLeft=8;spacingRight=8;" parent="1" source="71" target="5" edge="1">
                    <mxGeometry relative="1" as="geometry"/>
                </mxCell>
                <mxCell id="74" style="edgeStyle=none;html=1;entryX=1;entryY=0.5;entryDx=0;entryDy=0;fillColor=#1ba1e2;strokeColor=#006EAF;fontSize=16;spacingTop=4;spacingBottom=4;spacingLeft=8;spacingRight=8;" parent="1" source="71" target="73" edge="1">
                    <mxGeometry relative="1" as="geometry"/>
                </mxCell>
                <mxCell id="95" style="edgeStyle=none;html=1;entryX=0.5;entryY=1;entryDx=0;entryDy=0;endArrow=classic;endFill=1;fontColor=#FFFFFF;strokeColor=#FFFFFF;fontSize=16;spacingTop=4;spacingBottom=4;spacingLeft=8;spacingRight=8;" parent="1" source="71" target="63" edge="1">
                    <mxGeometry relative="1" as="geometry">
                        <Array as="points">
                            <mxPoint x="588" y="803"/>
                            <mxPoint x="1018" y="802"/>
                        </Array>
                    </mxGeometry>
                </mxCell>
                <mxCell id="97" style="edgeStyle=none;html=1;entryX=0.5;entryY=1;entryDx=0;entryDy=0;endArrow=classic;endFill=1;fontColor=#FFFFFF;strokeColor=#FFFFFF;fontSize=16;spacingTop=4;spacingBottom=4;spacingLeft=8;spacingRight=8;" parent="1" source="71" target="67" edge="1">
                    <mxGeometry relative="1" as="geometry">
                        <Array as="points">
                            <mxPoint x="588" y="803"/>
                            <mxPoint x="152" y="800"/>
                        </Array>
                    </mxGeometry>
                </mxCell>
                <mxCell id="99" style="edgeStyle=none;html=1;entryX=0.5;entryY=0;entryDx=0;entryDy=0;endArrow=classic;endFill=1;fontColor=#FFFFFF;labelBorderColor=#FFFFFF;strokeColor=#FFFFFF;fontSize=16;spacingTop=4;spacingBottom=4;spacingLeft=8;spacingRight=8;" parent="1" source="71" target="13" edge="1">
                    <mxGeometry relative="1" as="geometry"/>
                </mxCell>
                <mxCell id="100" style="edgeStyle=none;html=1;entryX=0.5;entryY=1;entryDx=0;entryDy=0;endArrow=classic;endFill=1;strokeColor=#FFFFFF;fontSize=16;spacingTop=4;spacingBottom=4;spacingLeft=8;spacingRight=8;" parent="1" source="71" target="10" edge="1">
                    <mxGeometry relative="1" as="geometry"/>
                </mxCell>
                <mxCell id="71" value="TodoUseCase" style="rounded=0;whiteSpace=wrap;html=1;glass=0;shadow=0;strokeColor=#FFFFFF;fillColor=#18141D;fontColor=#FFFFFF;fontSize=16;spacingTop=16;spacingBottom=16;spacingLeft=6;spacingRight=6;" parent="1" vertex="1">
                    <mxGeometry x="528" y="690" width="120" height="58" as="geometry"/>
                </mxCell>
                <mxCell id="77" style="edgeStyle=none;html=1;entryX=1;entryY=0.5;entryDx=0;entryDy=0;fontColor=#FFFFFF;strokeColor=#FFFFFF;fontSize=16;spacingTop=4;spacingBottom=4;spacingLeft=8;spacingRight=8;" parent="1" source="73" target="67" edge="1">
                    <mxGeometry relative="1" as="geometry"/>
                </mxCell>
                <mxCell id="73" value="ITodoInputPort" style="rounded=1;whiteSpace=wrap;html=1;glass=0;shadow=0;dashed=1;fillColor=#18141D;strokeColor=#FFFFFF;fontColor=#FFFFFF;fontSize=16;spacingTop=16;spacingBottom=16;spacingLeft=6;spacingRight=6;" parent="1" vertex="1">
                    <mxGeometry x="308" y="690" width="124" height="58" as="geometry"/>
                </mxCell>
            </root>
        </mxGraphModel>
    </diagram>
</mxfile>
